# Blender 5.1.2
# www.blender.org
mtllib plate.mtl
o Dish
v 0.111655 1.692198 0.161178
v 0.693425 1.395713 0.161178
v -0.541142 1.706901 0.161178
v -1.135671 1.436910 0.161178
v -1.554179 0.935700 0.161178
v -1.713774 0.302542 0.161178
v -1.582848 -0.337159 0.161178
v -1.187331 -0.856704 0.161178
v -0.605561 -1.153188 0.161178
v 0.047236 -1.167892 0.161178
v 0.641765 -0.897901 0.161178
v 1.060273 -0.396691 0.161178
v 1.219868 0.236467 0.161178
v 1.088942 0.876168 0.161178
v 0.275910 2.343845 0.269525
v 1.124153 1.911559 0.269525
v -0.675892 2.365283 0.269525
v -1.542738 1.971626 0.269525
v -2.152938 1.240843 0.269525
v -2.385634 0.317675 0.269525
v -2.194738 -0.615034 0.269525
v -1.618060 -1.372550 0.269525
v -0.769817 -1.804836 0.269525
v 0.181986 -1.826274 0.269525
v 1.048831 -1.432617 0.269525
v 1.659032 -0.701834 0.269525
v 1.891728 0.221334 0.269525
v 1.700832 1.154043 0.269525
v 0.419169 1.576585 0.161178
v -0.213919 1.736163 0.161178
v -0.853550 1.605251 0.161178
v -1.373036 1.209778 0.161178
v -1.669488 0.628073 0.161178
v -1.684190 -0.024652 0.161178
v -1.414229 -0.619115 0.161178
v -0.913075 -1.037576 0.161178
v -0.279987 -1.197154 0.161178
v 0.359643 -1.066242 0.161178
v 0.879130 -0.670769 0.161178
v 1.175582 -0.089064 0.161178
v 1.190284 0.563661 0.161178
v 0.920323 1.158124 0.161178
v 0.897172 0.789081 0.034772
v 1.009304 0.241209 0.034772
v -1.391078 -0.250072 0.034772
v -1.503210 0.297800 0.034772
v 0.558432 1.234044 0.034772
v -1.052338 -0.695035 0.034772
v -0.554082 -0.948959 0.034772
v 0.060176 1.487968 0.034772
v 0.005005 -0.961552 0.034772
v -0.498911 1.500561 0.034772
v 0.514188 -0.730318 0.034772
v -1.008095 1.269328 0.034772
v 0.872618 -0.301058 0.034772
v -1.366525 0.840067 0.034772
v 0.724278 2.175277 0.269525
v -0.198788 2.407948 0.269525
v -1.131394 2.217073 0.269525
v -1.888825 1.640459 0.269525
v -2.321064 0.792311 0.269525
v -2.342499 -0.159386 0.269525
v -1.948886 -1.026136 0.269525
v -1.218184 -1.636268 0.269525
v -0.295118 -1.868938 0.269525
v 0.637488 -1.678064 0.269525
v 1.394919 -1.101450 0.269525
v 1.827157 -0.253301 0.269525
v 1.848593 0.698396 0.269525
v 1.454979 1.565145 0.269525
v 1.363222 1.000726 0.197979
v 0.886499 1.626941 0.197979
v -1.857128 -0.461717 0.197979
v -1.380406 -1.087932 0.197979
v -0.679189 -1.445290 0.197979
v 0.185282 1.984299 0.197979
v 0.107638 -1.463012 0.197979
v -0.601544 2.002021 0.197979
v 0.824233 -1.137588 0.197979
v -1.318139 1.676597 0.197979
v 1.328666 -0.533472 0.197979
v -1.822573 1.072481 0.197979
v 1.521029 0.229684 0.197979
v -2.014936 0.309326 0.197979
v 1.159983 1.340571 0.197979
v 0.974456 0.519488 0.033409
v -1.468362 0.019521 0.033409
v 0.745034 1.024681 0.033409
v -1.238941 -0.485672 0.033409
v -0.813044 -0.841293 0.033409
v 0.319138 1.380303 0.033409
v -0.275026 -0.976908 0.033409
v -0.218880 1.515917 0.033409
v 0.268552 -0.865655 0.033409
v -0.762458 1.404664 0.033409
v 0.710028 -0.529569 0.033409
v -1.203934 1.068578 0.033409
v 0.961962 -0.035218 0.033409
v -1.455868 0.574227 0.033409
v -1.653889 -0.801562 0.197979
v -1.049840 -1.305940 0.197979
v 0.555934 1.844949 0.197979
v -0.286770 -1.498282 0.197979
v -0.207137 2.037291 0.197979
v 0.484187 -1.340492 0.197979
v -0.978094 1.879501 0.197979
v 1.110333 -0.863822 0.197979
v -1.604239 1.402831 0.197979
v 1.467651 -0.162683 0.197979
v -1.961557 0.701692 0.197979
v 1.485371 0.624056 0.197979
v -1.979277 -0.085047 0.197979
v 0.109840 1.684998 0.184124
v 0.688666 1.390013 0.184124
v -0.539654 1.699626 0.184124
v -1.131173 1.431002 0.184124
v -1.547563 0.932329 0.184124
v -1.706351 0.302375 0.184124
v -1.576087 -0.334089 0.184124
v -1.182572 -0.851004 0.184124
v -0.603746 -1.145988 0.184124
v 0.045747 -1.160617 0.184124
v 0.637267 -0.891993 0.184124
v 1.053657 -0.393319 0.184124
v 1.212444 0.236634 0.184124
v 1.082181 0.873098 0.184124
v 0.275827 2.343514 0.293640
v 1.123935 1.911297 0.293640
v -0.675823 2.364948 0.293640
v -1.542531 1.971355 0.293640
v -2.152634 1.240688 0.293640
v -2.385293 0.317667 0.293640
v -2.194428 -0.614893 0.293640
v -1.617841 -1.372287 0.293640
v -0.769733 -1.804505 0.293640
v 0.181917 -1.825939 0.293640
v 1.048625 -1.432346 0.293640
v 1.658728 -0.701679 0.293640
v 1.891386 0.221342 0.293640
v 1.700521 1.153902 0.293640
v 0.415789 1.569955 0.184119
v -0.214087 1.728722 0.184119
v -0.850472 1.598475 0.184119
v -1.367324 1.205009 0.184119
v -1.662273 0.626253 0.184119
v -1.676899 -0.023159 0.184119
v -1.408308 -0.614607 0.184119
v -0.909695 -1.030946 0.184119
v -0.279820 -1.189713 0.184119
v 0.356566 -1.059466 0.184119
v 0.873418 -0.665999 0.184119
v 1.168366 -0.087244 0.184119
v 1.182993 0.562168 0.184119
v 0.914402 1.153616 0.184119
v 0.890895 0.786230 0.057884
v 1.002411 0.241365 0.057884
v -1.384801 -0.247221 0.057884
v -1.496318 0.297645 0.057884
v 0.554013 1.228752 0.057884
v -1.047919 -0.689743 0.057884
v -0.552397 -0.942274 0.057884
v 0.058491 1.481283 0.057884
v 0.003622 -0.954797 0.057884
v -0.497529 1.493807 0.057884
v 0.510012 -0.724833 0.057884
v -1.003918 1.263842 0.057884
v 0.866476 -0.297927 0.057884
v -1.360382 0.836936 0.057884
v 0.724123 2.174973 0.293640
v -0.198796 2.407606 0.293640
v -1.131253 2.216763 0.293640
v -1.888563 1.640240 0.293640
v -2.320733 0.792227 0.293640
v -2.342164 -0.159317 0.293640
v -1.948614 -1.025929 0.293640
v -1.218029 -1.635964 0.293640
v -0.295110 -1.868597 0.293640
v 0.637346 -1.677753 0.293640
v 1.394657 -1.101231 0.293640
v 1.826826 -0.253218 0.293640
v 1.848258 0.698327 0.293640
v 1.454708 1.564938 0.293640
v 1.361817 1.000088 0.307770
v 0.885510 1.625757 0.307770
v -1.855724 -0.461079 0.307770
v -1.379417 -1.086748 0.307770
v -0.678812 -1.443794 0.307770
v 0.184905 1.982803 0.307770
v 0.107328 -1.461500 0.307770
v -0.601234 2.000510 0.307770
v 0.823298 -1.136360 0.307770
v -1.317204 1.675369 0.307770
v 1.327292 -0.532771 0.307770
v -1.821198 1.071780 0.307770
v 1.519487 0.229718 0.307770
v -2.013393 0.309291 0.307770
v 1.158755 1.339636 0.307770
v 0.967950 0.518156 0.056595
v -1.461856 0.020853 0.056595
v 0.739751 1.020658 0.056595
v -1.233657 -0.481649 0.056595
v -0.810029 -0.835377 0.056595
v 0.316122 1.374386 0.056595
v -0.274877 -0.970268 0.056595
v -0.219030 1.509278 0.056595
v 0.265805 -0.859608 0.056595
v -0.759712 1.398617 0.056595
v 0.704930 -0.525312 0.056595
v -1.198836 1.064322 0.056595
v 0.955523 -0.033594 0.056595
v -1.449429 0.572603 0.056595
v -1.652661 -0.800626 0.307770
v -1.049139 -1.304565 0.307770
v 0.555232 1.843574 0.307770
v -0.286735 -1.496738 0.307770
v -0.207171 2.035747 0.307770
v 0.483549 -1.339086 0.307770
v -0.977455 1.878095 0.307770
v 1.109148 -0.862833 0.307770
v -1.603054 1.401842 0.307770
v 1.466154 -0.162306 0.307770
v -1.960060 0.701315 0.307770
v 1.483858 0.623746 0.307770
v -1.977765 -0.084737 0.307770
v -0.246953 0.269505 0.057239
v -0.246953 0.269505 0.034091
vn 0.2803 0.1273 -0.9514
vn 0.2455 0.1869 -0.9512
vn 0.1256 0.0956 -0.9875
vn 0.1437 0.0653 -0.9875
vn 0.1973 0.2363 -0.9514
vn 0.1012 0.1212 -0.9875
vn 0.1214 0.1454 -0.9819
vn 0.1508 0.1148 -0.9819
vn 0.1725 0.0783 -0.9819
vn 0.4982 0.1020 -0.8610
vn 0.4621 0.2098 -0.8617
vn 0.3023 0.0619 -0.9512
vn 0.5074 -0.0114 -0.8617
vn 0.3078 -0.0069 -0.9514
vn -0.4982 -0.1020 -0.8610
vn -0.4621 -0.2098 -0.8617
vn -0.2803 -0.1273 -0.9514
vn -0.3023 -0.0619 -0.9512
vn -0.5074 0.0114 -0.8617
vn -0.3078 0.0069 -0.9514
vn 0.4047 0.3081 -0.8610
vn 0.3253 0.3896 -0.8617
vn -0.4047 -0.3081 -0.8610
vn -0.3253 -0.3896 -0.8617
vn -0.1973 -0.2363 -0.9514
vn -0.2455 -0.1869 -0.9512
vn -0.2309 -0.4531 -0.8610
vn -0.1240 -0.4921 -0.8617
vn -0.0753 -0.2986 -0.9514
vn -0.1401 -0.2749 -0.9512
vn 0.2309 0.4531 -0.8610
vn 0.1240 0.4921 -0.8617
vn 0.0753 0.2986 -0.9514
vn 0.1401 0.2749 -0.9512
vn -0.0115 -0.5084 -0.8610
vn 0.1018 -0.4972 -0.8617
vn 0.0617 -0.3016 -0.9514
vn -0.0069 -0.3085 -0.9512
vn 0.0115 0.5084 -0.8610
vn -0.1018 0.4972 -0.8617
vn -0.0617 0.3016 -0.9514
vn 0.0069 0.3085 -0.9512
vn 0.2103 -0.4631 -0.8610
vn 0.3074 -0.4038 -0.8617
vn 0.1865 -0.2450 -0.9514
vn 0.1276 -0.2810 -0.9512
vn -0.2103 0.4631 -0.8610
vn -0.3074 0.4038 -0.8617
vn -0.1865 0.2450 -0.9514
vn -0.1276 0.2810 -0.9512
vn 0.3904 -0.3260 -0.8610
vn 0.4522 -0.2304 -0.8617
vn 0.2743 -0.1398 -0.9514
vn 0.2369 -0.1978 -0.9512
vn -0.3904 0.3260 -0.8610
vn -0.4522 0.2304 -0.8617
vn -0.2743 0.1398 -0.9514
vn -0.2369 0.1978 -0.9512
vn 0.4931 -0.1243 -0.8610
vn 0.2992 -0.0754 -0.9512
vn -0.4931 0.1243 -0.8610
vn -0.2992 0.0754 -0.9512
vn -0.1256 -0.0956 -0.9875
vn -0.1437 -0.0653 -0.9875
vn -0.1012 -0.1212 -0.9875
vn -0.1214 -0.1454 -0.9819
vn -0.1508 -0.1148 -0.9819
vn -0.1725 -0.0783 -0.9819
vn -0.0717 -0.1407 -0.9875
vn -0.0386 -0.1531 -0.9875
vn -0.0463 -0.1837 -0.9819
vn -0.0860 -0.1688 -0.9819
vn 0.0717 0.1407 -0.9875
vn 0.0386 0.1531 -0.9875
vn 0.0463 0.1837 -0.9819
vn 0.0860 0.1688 -0.9819
vn -0.0036 -0.1578 -0.9875
vn 0.0317 -0.1547 -0.9875
vn 0.0380 -0.1856 -0.9819
vn -0.0043 -0.1894 -0.9819
vn 0.0036 0.1578 -0.9875
vn -0.0317 0.1547 -0.9875
vn -0.0380 0.1856 -0.9819
vn 0.0043 0.1894 -0.9819
vn 0.0653 -0.1437 -0.9875
vn 0.0956 -0.1256 -0.9875
vn 0.1148 -0.1507 -0.9819
vn 0.0783 -0.1725 -0.9819
vn -0.0653 0.1437 -0.9875
vn -0.0956 0.1256 -0.9875
vn -0.1148 0.1507 -0.9819
vn -0.0783 0.1725 -0.9819
vn 0.1212 -0.1012 -0.9875
vn 0.1407 -0.0717 -0.9875
vn 0.1688 -0.0860 -0.9819
vn 0.1454 -0.1214 -0.9819
vn -0.1212 0.1012 -0.9875
vn -0.1407 0.0717 -0.9875
vn -0.1688 0.0860 -0.9819
vn -0.1454 0.1214 -0.9819
vn 0.1531 -0.0386 -0.9875
vn 0.1578 -0.0036 -0.9875
vn 0.1894 -0.0043 -0.9819
vn 0.1837 -0.0463 -0.9819
vn -0.1531 0.0386 -0.9875
vn -0.1578 0.0036 -0.9875
vn -0.1894 0.0043 -0.9819
vn -0.1837 0.0463 -0.9819
vn 0.1547 0.0317 -0.9875
vn 0.1856 0.0380 -0.9819
vn -0.1547 -0.0317 -0.9875
vn -0.1856 -0.0380 -0.9819
vn -0.0003 -0.0004 -1.0000
vn 0.0004 0.0003 -1.0000
vn -0.0000 -0.0000 -1.0000
vn -0.3985 -0.1810 0.8991
vn -0.1429 -0.0649 0.9876
vn -0.1250 -0.0951 0.9876
vn -0.3487 -0.2655 0.8989
vn -0.1006 -0.1205 0.9876
vn -0.2805 -0.3359 0.8991
vn 0.0302 0.0230 0.9993
vn 0.0243 0.0291 0.9993
vn 0.0346 0.0157 0.9993
vn -0.4988 -0.1021 0.8607
vn -0.4293 -0.0879 0.8989
vn -0.4626 -0.2101 0.8613
vn -0.5079 0.0114 0.8613
vn -0.4375 0.0099 0.8991
vn 0.4988 0.1021 0.8607
vn 0.4293 0.0879 0.8989
vn 0.3985 0.1810 0.8991
vn 0.4626 0.2101 0.8613
vn 0.5079 -0.0114 0.8613
vn 0.4375 -0.0099 0.8991
vn -0.4051 -0.3084 0.8607
vn -0.3256 -0.3900 0.8613
vn 0.4051 0.3084 0.8607
vn 0.3487 0.2655 0.8989
vn 0.2805 0.3359 0.8991
vn 0.3256 0.3900 0.8613
vn 0.2312 0.4536 0.8607
vn 0.1990 0.3905 0.8989
vn 0.1070 0.4244 0.8991
vn 0.1242 0.4927 0.8613
vn -0.2312 -0.4536 0.8607
vn -0.1990 -0.3905 0.8989
vn -0.1070 -0.4244 0.8991
vn -0.1242 -0.4927 0.8613
vn 0.0115 0.5090 0.8607
vn 0.0099 0.4381 0.8989
vn -0.0878 0.4288 0.8991
vn -0.1019 0.4977 0.8613
vn -0.0115 -0.5090 0.8607
vn -0.0099 -0.4381 0.8989
vn 0.0878 -0.4288 0.8991
vn 0.1019 -0.4977 0.8613
vn -0.2105 0.4636 0.8607
vn -0.1812 0.3990 0.8989
vn -0.2651 0.3482 0.8991
vn -0.3077 0.4043 0.8613
vn 0.2105 -0.4636 0.8607
vn 0.1812 -0.3990 0.8989
vn 0.2651 -0.3482 0.8991
vn 0.3077 -0.4043 0.8613
vn -0.3908 0.3263 0.8607
vn -0.3364 0.2809 0.8989
vn -0.3899 0.1987 0.8991
vn -0.4527 0.2307 0.8613
vn 0.3908 -0.3263 0.8607
vn 0.3364 -0.2809 0.8989
vn 0.3899 -0.1987 0.8991
vn 0.4527 -0.2307 0.8613
vn -0.4937 0.1244 0.8607
vn -0.4249 0.1071 0.8989
vn 0.4937 -0.1244 0.8607
vn 0.4249 -0.1071 0.8989
vn 0.1429 0.0649 0.9876
vn 0.1250 0.0951 0.9876
vn 0.1006 0.1205 0.9876
vn -0.0302 -0.0230 0.9993
vn -0.0243 -0.0291 0.9993
vn -0.0346 -0.0157 0.9993
vn 0.0713 0.1399 0.9876
vn 0.0384 0.1522 0.9876
vn -0.0172 -0.0338 0.9993
vn -0.0093 -0.0368 0.9993
vn -0.0713 -0.1399 0.9876
vn -0.0384 -0.1522 0.9876
vn 0.0172 0.0338 0.9993
vn 0.0093 0.0368 0.9993
vn 0.0035 0.1570 0.9876
vn -0.0315 0.1537 0.9876
vn -0.0009 -0.0380 0.9993
vn 0.0076 -0.0372 0.9993
vn -0.0035 -0.1570 0.9876
vn 0.0315 -0.1537 0.9876
vn 0.0009 0.0380 0.9993
vn -0.0076 0.0372 0.9993
vn -0.0649 0.1430 0.9876
vn -0.0951 0.1249 0.9876
vn 0.0157 -0.0346 0.9993
vn 0.0230 -0.0302 0.9993
vn 0.0649 -0.1430 0.9876
vn 0.0951 -0.1249 0.9876
vn -0.0157 0.0346 0.9993
vn -0.0230 0.0302 0.9993
vn -0.1206 0.1007 0.9876
vn -0.1398 0.0713 0.9876
vn 0.0291 -0.0243 0.9993
vn 0.0338 -0.0172 0.9993
vn 0.1206 -0.1007 0.9876
vn 0.1398 -0.0713 0.9876
vn -0.0291 0.0243 0.9993
vn -0.0338 0.0172 0.9993
vn -0.1523 0.0384 0.9876
vn -0.1569 0.0035 0.9876
vn 0.0368 -0.0093 0.9993
vn 0.0379 -0.0009 0.9993
vn 0.1523 -0.0384 0.9876
vn 0.1569 -0.0035 0.9876
vn -0.0368 0.0093 0.9993
vn -0.0379 0.0009 0.9993
vn -0.1539 -0.0315 0.9876
vn 0.0372 0.0076 0.9993
vn 0.1539 0.0315 0.9876
vn -0.0372 -0.0076 0.9993
vn 0.4540 0.8909 0.0141
vn 0.2444 0.9696 0.0142
vn 0.6409 0.7675 0.0142
vn 0.0225 0.9996 0.0142
vn -0.2005 0.9796 0.0142
vn -0.4134 0.9104 0.0142
vn -0.6057 0.7956 0.0142
vn -0.7675 0.6409 0.0142
vn -0.8909 0.4540 0.0142
vn -0.9696 0.2444 0.0142
vn -0.9996 0.0225 0.0142
vn -0.9796 -0.2005 0.0142
vn -0.9104 -0.4134 0.0142
vn -0.7956 -0.6057 0.0141
vn -0.6409 -0.7675 0.0142
vn -0.4540 -0.8909 0.0141
vn -0.2444 -0.9696 0.0142
vn -0.0225 -0.9996 0.0142
vn 0.2005 -0.9796 0.0142
vn 0.4134 -0.9104 0.0142
vn 0.6057 -0.7956 0.0142
vn 0.7675 -0.6409 0.0142
vn 0.8909 -0.4540 0.0142
vn 0.9696 -0.2444 0.0142
vn 0.9996 -0.0225 0.0142
vn 0.9796 0.2005 0.0142
vn 0.9104 0.4134 0.0142
vn 0.7956 0.6057 0.0141
vn 0.0004 0.0003 1.0000
vn -0.0003 -0.0004 1.0000
vn -0.0000 -0.0000 1.0000
vn -0.0004 0.0003 1.0000
vn 0.0005 -0.0002 1.0000
vn 0.0001 0.0005 1.0000
vn -0.0000 -0.0005 1.0000
vn -0.0000 0.0005 1.0000
vn 0.0001 -0.0005 1.0000
vn -0.0005 -0.0002 1.0000
vn 0.0003 -0.0004 1.0000
vn -0.0004 -0.0003 1.0000
vn 0.0003 0.0004 1.0000
vn 0.0005 -0.0001 1.0000
vn -0.0005 -0.0000 1.0000
vn -0.0001 -0.0005 1.0000
vn 0.0002 -0.0005 1.0000
vn -0.0003 0.0004 1.0000
vn 0.0005 0.0002 1.0000
vn -0.0005 0.0002 1.0000
vn -0.0002 -0.0005 1.0000
vn -0.0005 0.0001 1.0000
vn 0.0005 -0.0000 1.0000
vn -0.0001 0.0005 1.0000
vn 0.0005 0.0001 1.0000
vn -0.0002 0.0005 1.0000
vn 0.0002 0.0005 1.0000
vn -0.0005 -0.0001 1.0000
vn 0.0004 -0.0003 1.0000
vn 0.0005 -0.0000 -1.0000
vn -0.0005 0.0001 -1.0000
vn -0.0000 -0.0005 -1.0000
vn 0.0001 0.0005 -1.0000
vn 0.0003 -0.0004 -1.0000
vn -0.0002 0.0005 -1.0000
vn -0.0005 -0.0002 -1.0000
vn 0.0005 -0.0002 -1.0000
vn -0.0001 -0.0005 -1.0000
vn 0.0002 0.0005 -1.0000
vn -0.0005 -0.0000 -1.0000
vn 0.0005 -0.0001 -1.0000
vn 0.0001 -0.0005 -1.0000
vn 0.0005 0.0002 -1.0000
vn -0.0005 -0.0001 -1.0000
vn -0.0003 0.0004 -1.0000
vn 0.0002 -0.0005 -1.0000
vn -0.0005 0.0002 -1.0000
vn -0.0002 -0.0005 -1.0000
vn -0.0001 0.0005 -1.0000
vn 0.0005 0.0001 -1.0000
vn -0.0004 0.0004 -1.0000
vn 0.0003 0.0004 -1.0000
vn -0.0000 0.0005 -1.0000
vn -0.0004 -0.0003 -1.0000
vn 0.0004 -0.0004 -1.0000
vt 0.000000 0.000000
s 1
usemtl Withe
f 14/1/1 42/1/2 85/1/3 71/1/4
f 42/1/2 2/1/5 72/1/6 85/1/3
f 85/1/3 72/1/6 16/1/7 70/1/8
f 71/1/4 85/1/3 70/1/8 28/1/9
f 86/1/10 43/1/11 14/1/1 41/1/12
f 44/1/13 86/1/10 41/1/12 13/1/14
f 87/1/15 45/1/16 7/1/17 34/1/18
f 46/1/19 87/1/15 34/1/18 6/1/20
f 88/1/21 47/1/22 2/1/5 42/1/2
f 43/1/11 88/1/21 42/1/2 14/1/1
f 89/1/23 48/1/24 8/1/25 35/1/26
f 45/1/16 89/1/23 35/1/26 7/1/17
f 90/1/27 49/1/28 9/1/29 36/1/30
f 48/1/24 90/1/27 36/1/30 8/1/25
f 91/1/31 50/1/32 1/1/33 29/1/34
f 47/1/22 91/1/31 29/1/34 2/1/5
f 92/1/35 51/1/36 10/1/37 37/1/38
f 49/1/28 92/1/35 37/1/38 9/1/29
f 93/1/39 52/1/40 3/1/41 30/1/42
f 50/1/32 93/1/39 30/1/42 1/1/33
f 94/1/43 53/1/44 11/1/45 38/1/46
f 51/1/36 94/1/43 38/1/46 10/1/37
f 95/1/47 54/1/48 4/1/49 31/1/50
f 52/1/40 95/1/47 31/1/50 3/1/41
f 96/1/51 55/1/52 12/1/53 39/1/54
f 53/1/44 96/1/51 39/1/54 11/1/45
f 97/1/55 56/1/56 5/1/57 32/1/58
f 54/1/48 97/1/55 32/1/58 4/1/49
f 98/1/59 44/1/13 13/1/14 40/1/60
f 55/1/52 98/1/59 40/1/60 12/1/53
f 99/1/61 46/1/19 6/1/20 33/1/62
f 56/1/56 99/1/61 33/1/62 5/1/57
f 7/1/17 35/1/26 100/1/63 73/1/64
f 35/1/26 8/1/25 74/1/65 100/1/63
f 100/1/63 74/1/65 22/1/66 63/1/67
f 73/1/64 100/1/63 63/1/67 21/1/68
f 8/1/25 36/1/30 101/1/69 74/1/65
f 36/1/30 9/1/29 75/1/70 101/1/69
f 101/1/69 75/1/70 23/1/71 64/1/72
f 74/1/65 101/1/69 64/1/72 22/1/66
f 2/1/5 29/1/34 102/1/73 72/1/6
f 29/1/34 1/1/33 76/1/74 102/1/73
f 102/1/73 76/1/74 15/1/75 57/1/76
f 72/1/6 102/1/73 57/1/76 16/1/7
f 9/1/29 37/1/38 103/1/77 75/1/70
f 37/1/38 10/1/37 77/1/78 103/1/77
f 103/1/77 77/1/78 24/1/79 65/1/80
f 75/1/70 103/1/77 65/1/80 23/1/71
f 1/1/33 30/1/42 104/1/81 76/1/74
f 30/1/42 3/1/41 78/1/82 104/1/81
f 104/1/81 78/1/82 17/1/83 58/1/84
f 76/1/74 104/1/81 58/1/84 15/1/75
f 10/1/37 38/1/46 105/1/85 77/1/78
f 38/1/46 11/1/45 79/1/86 105/1/85
f 105/1/85 79/1/86 25/1/87 66/1/88
f 77/1/78 105/1/85 66/1/88 24/1/79
f 3/1/41 31/1/50 106/1/89 78/1/82
f 31/1/50 4/1/49 80/1/90 106/1/89
f 106/1/89 80/1/90 18/1/91 59/1/92
f 78/1/82 106/1/89 59/1/92 17/1/83
f 11/1/45 39/1/54 107/1/93 79/1/86
f 39/1/54 12/1/53 81/1/94 107/1/93
f 107/1/93 81/1/94 26/1/95 67/1/96
f 79/1/86 107/1/93 67/1/96 25/1/87
f 4/1/49 32/1/58 108/1/97 80/1/90
f 32/1/58 5/1/57 82/1/98 108/1/97
f 108/1/97 82/1/98 19/1/99 60/1/100
f 80/1/90 108/1/97 60/1/100 18/1/91
f 12/1/53 40/1/60 109/1/101 81/1/94
f 40/1/60 13/1/14 83/1/102 109/1/101
f 109/1/101 83/1/102 27/1/103 68/1/104
f 81/1/94 109/1/101 68/1/104 26/1/95
f 5/1/57 33/1/62 110/1/105 82/1/98
f 33/1/62 6/1/20 84/1/106 110/1/105
f 110/1/105 84/1/106 20/1/107 61/1/108
f 82/1/98 110/1/105 61/1/108 19/1/99
f 13/1/14 41/1/12 111/1/109 83/1/102
f 41/1/12 14/1/1 71/1/4 111/1/109
f 111/1/109 71/1/4 28/1/9 69/1/110
f 83/1/102 111/1/109 69/1/110 27/1/103
f 6/1/20 34/1/18 112/1/111 84/1/106
f 34/1/18 7/1/17 73/1/64 112/1/111
f 112/1/111 73/1/64 21/1/68 62/1/112
f 84/1/106 112/1/111 62/1/112 20/1/107
f 48/1/113 89/1/114 226/1/115
f 126/1/116 183/1/117 197/1/118 154/1/119
f 154/1/119 197/1/118 184/1/120 114/1/121
f 197/1/118 182/1/122 128/1/123 184/1/120
f 183/1/117 140/1/124 182/1/122 197/1/118
f 198/1/125 153/1/126 126/1/116 155/1/127
f 156/1/128 125/1/129 153/1/126 198/1/125
f 199/1/130 146/1/131 119/1/132 157/1/133
f 158/1/134 118/1/135 146/1/131 199/1/130
f 200/1/136 154/1/119 114/1/121 159/1/137
f 155/1/127 126/1/116 154/1/119 200/1/136
f 201/1/138 147/1/139 120/1/140 160/1/141
f 157/1/133 119/1/132 147/1/139 201/1/138
f 202/1/142 148/1/143 121/1/144 161/1/145
f 160/1/141 120/1/140 148/1/143 202/1/142
f 203/1/146 141/1/147 113/1/148 162/1/149
f 159/1/137 114/1/121 141/1/147 203/1/146
f 204/1/150 149/1/151 122/1/152 163/1/153
f 161/1/145 121/1/144 149/1/151 204/1/150
f 205/1/154 142/1/155 115/1/156 164/1/157
f 162/1/149 113/1/148 142/1/155 205/1/154
f 206/1/158 150/1/159 123/1/160 165/1/161
f 163/1/153 122/1/152 150/1/159 206/1/158
f 207/1/162 143/1/163 116/1/164 166/1/165
f 164/1/157 115/1/156 143/1/163 207/1/162
f 208/1/166 151/1/167 124/1/168 167/1/169
f 165/1/161 123/1/160 151/1/167 208/1/166
f 209/1/170 144/1/171 117/1/172 168/1/173
f 166/1/165 116/1/164 144/1/171 209/1/170
f 210/1/174 152/1/175 125/1/129 156/1/128
f 167/1/169 124/1/168 152/1/175 210/1/174
f 211/1/176 145/1/177 118/1/135 158/1/134
f 168/1/173 117/1/172 145/1/177 211/1/176
f 119/1/132 185/1/178 212/1/179 147/1/139
f 147/1/139 212/1/179 186/1/180 120/1/140
f 212/1/179 175/1/181 134/1/182 186/1/180
f 185/1/178 133/1/183 175/1/181 212/1/179
f 120/1/140 186/1/180 213/1/184 148/1/143
f 148/1/143 213/1/184 187/1/185 121/1/144
f 213/1/184 176/1/186 135/1/187 187/1/185
f 186/1/180 134/1/182 176/1/186 213/1/184
f 114/1/121 184/1/120 214/1/188 141/1/147
f 141/1/147 214/1/188 188/1/189 113/1/148
f 214/1/188 169/1/190 127/1/191 188/1/189
f 184/1/120 128/1/123 169/1/190 214/1/188
f 121/1/144 187/1/185 215/1/192 149/1/151
f 149/1/151 215/1/192 189/1/193 122/1/152
f 215/1/192 177/1/194 136/1/195 189/1/193
f 187/1/185 135/1/187 177/1/194 215/1/192
f 113/1/148 188/1/189 216/1/196 142/1/155
f 142/1/155 216/1/196 190/1/197 115/1/156
f 216/1/196 170/1/198 129/1/199 190/1/197
f 188/1/189 127/1/191 170/1/198 216/1/196
f 122/1/152 189/1/193 217/1/200 150/1/159
f 150/1/159 217/1/200 191/1/201 123/1/160
f 217/1/200 178/1/202 137/1/203 191/1/201
f 189/1/193 136/1/195 178/1/202 217/1/200
f 115/1/156 190/1/197 218/1/204 143/1/163
f 143/1/163 218/1/204 192/1/205 116/1/164
f 218/1/204 171/1/206 130/1/207 192/1/205
f 190/1/197 129/1/199 171/1/206 218/1/204
f 123/1/160 191/1/201 219/1/208 151/1/167
f 151/1/167 219/1/208 193/1/209 124/1/168
f 219/1/208 179/1/210 138/1/211 193/1/209
f 191/1/201 137/1/203 179/1/210 219/1/208
f 116/1/164 192/1/205 220/1/212 144/1/171
f 144/1/171 220/1/212 194/1/213 117/1/172
f 220/1/212 172/1/214 131/1/215 194/1/213
f 192/1/205 130/1/207 172/1/214 220/1/212
f 124/1/168 193/1/209 221/1/216 152/1/175
f 152/1/175 221/1/216 195/1/217 125/1/129
f 221/1/216 180/1/218 139/1/219 195/1/217
f 193/1/209 138/1/211 180/1/218 221/1/216
f 117/1/172 194/1/213 222/1/220 145/1/177
f 145/1/177 222/1/220 196/1/221 118/1/135
f 222/1/220 173/1/222 132/1/223 196/1/221
f 194/1/213 131/1/215 173/1/222 222/1/220
f 125/1/129 195/1/217 223/1/224 153/1/126
f 153/1/126 223/1/224 183/1/117 126/1/116
f 223/1/224 181/1/225 140/1/124 183/1/117
f 195/1/217 139/1/219 181/1/225 223/1/224
f 118/1/135 196/1/221 224/1/226 146/1/131
f 146/1/131 224/1/226 185/1/178 119/1/132
f 224/1/226 174/1/227 133/1/183 185/1/178
f 196/1/221 132/1/223 174/1/227 224/1/226
f 57/1/228 15/1/229 127/1/229 169/1/228
f 16/1/230 57/1/228 169/1/228 128/1/230
f 58/1/231 17/1/232 129/1/232 170/1/231
f 15/1/229 58/1/231 170/1/231 127/1/229
f 59/1/233 18/1/234 130/1/234 171/1/233
f 17/1/232 59/1/233 171/1/233 129/1/232
f 60/1/235 19/1/236 131/1/236 172/1/235
f 18/1/234 60/1/235 172/1/235 130/1/234
f 61/1/237 20/1/238 132/1/238 173/1/237
f 19/1/236 61/1/237 173/1/237 131/1/236
f 62/1/239 21/1/240 133/1/240 174/1/239
f 20/1/238 62/1/239 174/1/239 132/1/238
f 63/1/241 22/1/242 134/1/242 175/1/241
f 21/1/240 63/1/241 175/1/241 133/1/240
f 64/1/243 23/1/244 135/1/244 176/1/243
f 22/1/242 64/1/243 176/1/243 134/1/242
f 65/1/245 24/1/246 136/1/246 177/1/245
f 23/1/244 65/1/245 177/1/245 135/1/244
f 66/1/247 25/1/248 137/1/248 178/1/247
f 24/1/246 66/1/247 178/1/247 136/1/246
f 67/1/249 26/1/250 138/1/250 179/1/249
f 25/1/248 67/1/249 179/1/249 137/1/248
f 68/1/251 27/1/252 139/1/252 180/1/251
f 26/1/250 68/1/251 180/1/251 138/1/250
f 69/1/253 28/1/254 140/1/254 181/1/253
f 27/1/252 69/1/253 181/1/253 139/1/252
f 70/1/255 16/1/230 128/1/230 182/1/255
f 28/1/254 70/1/255 182/1/255 140/1/254
f 200/1/256 159/1/257 225/1/258
f 209/1/259 168/1/260 225/1/258
f 161/1/261 204/1/262 225/1/258
f 205/1/263 164/1/264 225/1/258
f 155/1/265 200/1/256 225/1/258
f 166/1/266 209/1/259 225/1/258
f 201/1/267 160/1/268 225/1/258
f 210/1/269 156/1/270 225/1/258
f 162/1/271 205/1/263 225/1/258
f 206/1/272 165/1/273 225/1/258
f 157/1/274 201/1/267 225/1/258
f 167/1/275 210/1/269 225/1/258
f 202/1/276 161/1/261 225/1/258
f 211/1/277 158/1/278 225/1/258
f 163/1/279 206/1/272 225/1/258
f 198/1/280 155/1/265 225/1/258
f 207/1/281 166/1/266 225/1/258
f 160/1/268 202/1/276 225/1/258
f 168/1/260 211/1/277 225/1/258
f 203/1/282 162/1/271 225/1/258
f 156/1/270 198/1/280 225/1/258
f 164/1/264 207/1/281 225/1/258
f 199/1/283 157/1/274 225/1/258
f 208/1/284 167/1/275 225/1/258
f 159/1/257 203/1/282 225/1/258
f 204/1/262 163/1/279 225/1/258
f 158/1/278 199/1/283 225/1/258
f 165/1/273 208/1/284 225/1/258
f 44/1/285 98/1/286 226/1/115
f 93/1/287 50/1/288 226/1/115
f 53/1/289 94/1/290 226/1/115
f 89/1/114 45/1/291 226/1/115
f 98/1/286 55/1/292 226/1/115
f 49/1/293 90/1/294 226/1/115
f 46/1/295 99/1/296 226/1/115
f 94/1/290 51/1/297 226/1/115
f 43/1/298 86/1/299 226/1/115
f 54/1/300 95/1/301 226/1/115
f 90/1/294 48/1/113 226/1/115
f 99/1/296 56/1/302 226/1/115
f 50/1/288 91/1/303 226/1/115
f 86/1/299 44/1/285 226/1/115
f 95/1/301 52/1/304 226/1/115
f 45/1/291 87/1/305 226/1/115
f 55/1/292 96/1/306 226/1/115
f 91/1/303 47/1/307 226/1/115
f 51/1/297 92/1/308 226/1/115
f 87/1/305 46/1/295 226/1/115
f 96/1/306 53/1/289 226/1/115
f 47/1/307 88/1/309 226/1/115
f 56/1/302 97/1/310 226/1/115
f 92/1/308 49/1/293 226/1/115
f 52/1/304 93/1/287 226/1/115
f 88/1/309 43/1/298 226/1/115
f 97/1/310 54/1/300 226/1/115
